<svg width="115" height="32" viewBox="0 0 115 32" fill="none" xmlns="http://www.w3.org/2000/svg">
<path d="M0 23.8155C0.149355 23.8155 0.29871 23.659 0.448065 23.3459C0.59742 23.0328 0.672098 22.5185 0.672098 21.8029V5.70231C0.672098 4.98672 0.59742 4.48358 0.448065 4.19287C0.29871 3.8798 0.149355 3.71209 0 3.68973H10.0495C11.9271 3.68973 13.506 3.87981 14.7862 4.25996C16.0663 4.64011 17.0905 5.16562 17.8586 5.83648C18.6481 6.50734 19.2455 7.27883 19.6509 8.15094C20.0563 9.0007 20.323 9.90636 20.451 10.8679C20.6003 11.8295 20.675 12.8022 20.675 13.7862C20.675 14.6806 20.6003 15.6087 20.451 16.5702C20.323 17.5094 20.0456 18.4151 19.6189 19.2872C19.2135 20.137 18.616 20.9085 17.8266 21.6017C17.0585 22.2725 16.0343 22.8092 14.7541 23.2117C13.4953 23.6143 11.9271 23.8155 10.0495 23.8155H0ZM6.881 20.0922H8.19319C10.0281 20.0922 11.5003 19.9357 12.6098 19.6226C13.7193 19.2872 14.5301 18.6834 15.0422 17.8113C15.5543 16.9392 15.8103 15.6758 15.8103 14.021V13.4172C15.8103 11.673 15.5756 10.3871 15.1062 9.55975C14.6368 8.70999 13.8473 8.15094 12.7379 7.8826C11.6284 7.61426 10.1135 7.48008 8.19319 7.48008H6.881C6.26225 7.48008 5.88886 7.52481 5.76084 7.61426C5.65416 7.68134 5.60082 7.94969 5.60082 8.41929V19.086C5.60082 19.5779 5.65416 19.8686 5.76084 19.9581C5.88886 20.0475 6.26225 20.0922 6.881 20.0922Z" fill="#093D9F"/>
<path d="M29.9744 17.7778C30.1237 17.2411 30.2624 16.6038 30.3904 15.8658C30.5398 15.1055 30.6145 14.5129 30.6145 14.088H36.8874C37.9755 14.088 38.765 14.0545 39.2557 13.9874C39.7678 13.898 40.0452 13.8197 40.0878 13.7526C39.9385 14.1104 39.7891 14.6359 39.6398 15.3291C39.5118 16.0224 39.4477 16.7268 39.4477 17.4423H33.8149C32.6414 17.4423 31.7453 17.4871 31.1265 17.5765C30.5078 17.6436 30.1237 17.7107 29.9744 17.7778Z" fill="#093D9F"/>
<path d="M49.696 23.8155C49.8453 23.8155 49.9947 23.659 50.1441 23.3459C50.2934 23.0328 50.3681 22.5185 50.3681 21.8029V5.70231C50.3681 4.98672 50.2934 4.48358 50.1441 4.19287C49.9947 3.8798 49.8453 3.71209 49.696 3.68973H61.6657C63.33 3.68973 64.6315 3.89099 65.5703 4.2935C66.5091 4.69602 67.1705 5.27743 67.5546 6.03774C67.9386 6.77568 68.1307 7.6478 68.1307 8.65409C68.1307 9.45912 67.992 10.1412 67.7146 10.7002C67.4586 11.2369 67.1279 11.6618 66.7225 11.9748C66.3171 12.2879 65.9117 12.5227 65.5063 12.6792V12.7463C66.8932 13.0818 67.9386 13.6855 68.6427 14.5577C69.3468 15.4074 69.6989 16.5479 69.6989 17.979C69.6989 18.9406 69.5175 19.8686 69.1548 20.7631C68.7921 21.6576 68.12 22.3955 67.1385 22.9769C66.1784 23.536 64.7809 23.8155 62.9459 23.8155H49.696ZM56.577 20.0922H61.3777C62.5939 20.0922 63.458 19.9133 63.9701 19.5556C64.5035 19.1754 64.7702 18.5716 64.7702 17.7442C64.7702 16.9616 64.4821 16.3578 63.9061 15.9329C63.33 15.4857 62.3805 15.2621 61.0576 15.2621H56.609C55.9689 15.2621 55.5848 15.3068 55.4568 15.3962C55.3501 15.4857 55.2968 15.7876 55.2968 16.3019V19.086C55.2968 19.5779 55.3501 19.8686 55.4568 19.9581C55.5848 20.0475 55.9582 20.0922 56.577 20.0922ZM56.609 11.8407H60.3855C61.4097 11.8407 62.1351 11.6618 62.5619 11.304C63.0099 10.9238 63.234 10.3648 63.234 9.62683C63.234 8.88889 63.0206 8.34102 62.5939 7.98323C62.1885 7.62544 61.463 7.44654 60.4176 7.44654H56.577C55.9369 7.44654 55.5635 7.49126 55.4568 7.58071C55.3501 7.6478 55.2968 7.9385 55.2968 8.45283V10.8344C55.2968 11.3263 55.3501 11.6171 55.4568 11.7065C55.5848 11.7959 55.9689 11.8407 56.609 11.8407Z" fill="#093D9F"/>
<path d="M71.9417 23.8155C72.0911 23.8155 72.2404 23.659 72.3898 23.3459C72.5391 23.0328 72.6138 22.5185 72.6138 21.8029V2.68344C72.6138 1.96785 72.5391 1.45353 72.3898 1.14046C72.2618 0.827393 72.1231 0.670859 71.9737 0.670859C73.3819 0.670859 74.5234 0.603773 75.3982 0.469602C76.2944 0.313068 76.8811 0.156535 77.1585 0V21.8029C77.1585 22.5185 77.2225 23.0328 77.3505 23.3459C77.4999 23.659 77.6492 23.8155 77.7986 23.8155H71.9417Z" fill="#093D9F"/>
<path d="M88.3026 24.1509C86.169 24.1509 84.4941 23.7932 83.2779 23.0776C82.083 22.362 81.2402 21.3892 80.7495 20.1593C80.2801 18.9294 80.0454 17.543 80.0454 16C80.0454 14.4347 80.2908 13.037 80.7815 11.8071C81.2936 10.5772 82.147 9.60447 83.3419 8.88889C84.5367 8.15094 86.1903 7.78197 88.3026 7.78197C90.4149 7.78197 92.0685 8.15094 93.2633 8.88889C94.4582 9.60447 95.301 10.5772 95.7917 11.8071C96.3038 13.037 96.5598 14.4347 96.5598 16C96.5598 17.543 96.3144 18.9294 95.8237 20.1593C95.3543 21.3892 94.5222 22.362 93.3273 23.0776C92.1325 23.7932 90.4576 24.1509 88.3026 24.1509ZM88.3026 20.7631C89.1987 20.7631 89.9135 20.6289 90.4469 20.3606C91.0017 20.0699 91.3964 19.5779 91.6311 18.8847C91.8871 18.1915 92.0152 17.2299 92.0152 16C92.0152 14.7701 91.8871 13.8085 91.6311 13.1153C91.3964 12.3997 91.0017 11.8966 90.4469 11.6059C89.9135 11.2928 89.1987 11.1363 88.3026 11.1363C87.4065 11.1363 86.681 11.2928 86.1263 11.6059C85.5929 11.9189 85.1982 12.4333 84.9421 13.1488C84.7074 13.8644 84.5901 14.826 84.5901 16.0335C84.5901 17.2187 84.7074 18.1579 84.9421 18.8512C85.1982 19.5444 85.5929 20.0363 86.1263 20.327C86.681 20.6178 87.4065 20.7631 88.3026 20.7631Z" fill="#093D9F"/>
<path d="M106.327 32C105.089 32 103.948 31.9106 102.902 31.7317C101.878 31.5528 100.982 31.3291 100.214 31.0608C99.4671 30.8148 98.891 30.5688 98.4856 30.3229L99.1257 25.2914V24.3187C99.4244 24.9224 99.8938 25.5597 100.534 26.2306C101.174 26.9015 101.974 27.4717 102.934 27.9413C103.894 28.4109 104.983 28.6457 106.199 28.6457C106.988 28.6457 107.65 28.4668 108.183 28.109C108.716 27.7736 109.122 27.2481 109.399 26.5325C109.677 25.8169 109.815 24.9336 109.815 23.8826V23.3459L109.879 22.7421L109.815 22.6751C109.517 23.0105 109.111 23.29 108.599 23.5136C108.108 23.7149 107.564 23.8714 106.967 23.9832C106.391 24.095 105.815 24.1509 105.239 24.1509C103.51 24.1509 102.123 23.7932 101.078 23.0776C100.054 22.362 99.307 21.3892 98.8376 20.1593C98.3896 18.9294 98.1656 17.543 98.1656 16C98.1656 14.4347 98.3896 13.037 98.8376 11.8071C99.2857 10.5772 100.022 9.60447 101.046 8.88889C102.091 8.15094 103.489 7.78197 105.239 7.78197C105.836 7.78197 106.423 7.82669 106.999 7.91614C107.575 8.00559 108.108 8.13976 108.599 8.31866C109.09 8.47519 109.495 8.69881 109.815 8.98952L109.879 8.95597L109.815 8.31866V8.1174H115C114.851 8.13976 114.701 8.30748 114.552 8.62055C114.424 8.93361 114.36 9.45912 114.36 10.1971V23.044C114.36 26.2865 113.698 28.5898 112.376 29.9539C111.074 31.318 109.058 32 106.327 32ZM106.103 20.7631C106.849 20.7631 107.5 20.6289 108.055 20.3606C108.61 20.0922 109.036 19.6115 109.335 18.9182C109.655 18.225 109.815 17.2523 109.815 16C109.815 14.7701 109.655 13.8085 109.335 13.1153C109.036 12.3997 108.61 11.8966 108.055 11.6059C107.5 11.2928 106.849 11.1363 106.103 11.1363C105.399 11.1363 104.791 11.2928 104.278 11.6059C103.766 11.9189 103.372 12.4333 103.094 13.1488C102.817 13.8644 102.678 14.826 102.678 16.0335C102.678 17.2187 102.806 18.1579 103.062 18.8512C103.34 19.5444 103.734 20.0363 104.246 20.327C104.759 20.6178 105.377 20.7631 106.103 20.7631Z" fill="#093D9F"/>
</svg>
